<svg version="1.2" baseProfile="tiny-ps" xmlns="http://www.w3.org/2000/svg" viewBox="0 0 17 22" width="17" height="22">
	<title>LEADERBOARD</title>
	<defs>
		<clipPath clipPathUnits="userSpaceOnUse" id="cp1">
			<path d="m-1114-347h1920v1080h-1920z" />
		</clipPath>
	</defs>
	<style>
		tspan { white-space:pre }
		.s0 { fill: #ffffff } 
	</style>
	<g id="LEADERBOARD" clip-path="url(#cp1)">
		<path id="Icon awesome-award" fill-rule="evenodd" class="s0" d="m4.1 15.7c0.58 0.58 1.35 0.9 2.18 0.9c0.52 0 1.03-0.15 1.49-0.4l-2.2 5.38c-0.19 0.45-0.78 0.57-1.11 0.21l-1.53-1.61l-2.22 0.08c-0.49 0.02-0.84-0.48-0.65-0.93l1.91-4.69c0.32 0.25 0.67 0.45 1.07 0.56c0.88 0.24 0.69 0.13 1.06 0.5zm12.05 3.63c0.19 0.45-0.16 0.95-0.65 0.93l-2.22-0.08l-1.53 1.61c-0.34 0.36-0.93 0.25-1.11-0.21l-2.2-5.38c0.46 0.25 0.96 0.4 1.49 0.4c0.82 0 1.6-0.32 2.18-0.9c0.37-0.37 0.17-0.26 1.06-0.5c0.4-0.11 0.75-0.31 1.07-0.56l1.91 4.69zm-7.15-4.34c-0.55-0.35-1.25-0.35-1.79 0c-0.67 0.42-1.54 0.32-2.1-0.25c-0.62-0.63-0.69-0.59-1.64-0.85c-0.59-0.16-1.04-0.63-1.2-1.22c-0.32-1.2-0.23-1.05-1.09-1.93c-0.43-0.44-0.6-1.07-0.44-1.67c0.32-1.2 0.32-1.03 0-2.23c-0.16-0.6 0.01-1.23 0.44-1.67c0.86-0.88 0.78-0.73 1.09-1.93c0.16-0.6 0.62-1.06 1.2-1.22c1.18-0.32 1.03-0.24 1.9-1.11c0.43-0.44 1.05-0.61 1.64-0.45c1.18 0.32 1.01 0.32 2.19 0c0.59-0.16 1.21 0.01 1.64 0.45c0.86 0.88 0.72 0.79 1.9 1.11c0.59 0.16 1.04 0.63 1.2 1.22c0.32 1.2 0.23 1.05 1.09 1.93c0.43 0.44 0.6 1.07 0.44 1.67c-0.32 1.2-0.32 1.03 0 2.23c0.16 0.6-0.01 1.23-0.44 1.67c-0.86 0.88-0.78 0.73-1.09 1.93c-0.16 0.6-0.62 1.06-1.2 1.22c-0.92 0.25-0.99 0.19-1.64 0.85c-0.56 0.57-1.43 0.67-2.1 0.25zm-0.9-3.11c2.2 0 3.98-1.81 3.98-4.05c0-2.24-1.78-4.05-3.98-4.05c-2.2 0-3.98 1.81-3.98 4.05c0 2.24 1.78 4.05 3.98 4.05z" />
	</g>
</svg>