<svg version="1.2" baseProfile="tiny-ps" xmlns="http://www.w3.org/2000/svg" viewBox="0 0 38 18" width="38" height="18">
	<title>STAKIN DESKTOP – 1</title>
	<defs>
		<clipPath clipPathUnits="userSpaceOnUse" id="cp1">
			<path d="m-259-220h1920v1080h-1920z" />
		</clipPath>
	</defs>
	<style>
		tspan { white-space:pre }
		.s0 { fill: #ffffff } 
	</style>
	<g id="STAKIN DESKTOP – 1" clip-path="url(#cp1)">
		<g id="Group 36">
			<g id="Group 7">
				<g id="Component 1 – 10">
					<path id="Path 2" class="s0" d="m23.46 2.1c0.74-0.24 1.08-0.73 1.35-1.16c0.2 1.02 0.99 0.88 0.89 0.73c-0.81-1.26 0.05-1.79 0.81-1.64c0.83 0.16 1.58 2.79-2.39 3.24c0 0-0.03 0.54-0.19 2.25c-0.16 1.7-1.19 3.06-1.44 4.54c-0.7 3.98 5.34 4 7.33 3.19c2.58-1.06 5.05 0.1 6.56 1.87c1.51 1.78 0.39 2.06-1.12 1.19c-1.51-0.87-2.93-0.84-4.64 0.03c-3.34 1.7-10.92 2.48-10.61-3.13c0.02-0.36 2.13-4.87 1.82-7.56c-0.6 2.89-2.25 6.78-2.74 7.48c-0.41 0.57-0.97 1.28-1.62 1.98c-1.44 1.54-3.44 2-6.05 2.64c-2.6 0.65-8.27-0.09-9.36-0.51c-2.37-0.92 5.84-3.1 6.83-3.21c1.24-0.14 4.81-1.36 5.1-2.39c-1.05 0.78-4.15 1.77-4.64 1.63c-0.99-0.27-2.01-0.58-2.69-2.34c-1.03-2.62-3.16-3.47-4.54-3.47c-5.46 0 0.54-4.01 7.24-0.85c2.13 1.01 3.26 4.1 4.61 4.02c1.35-0.06 2.66-4.74 4.17-6.75c1.51-2.02 4.32-2.05 5.31-1.79v0z" />
				</g>
			</g>
		</g>
	</g>
</svg>