<svg version="1.2" baseProfile="tiny-ps" xmlns="http://www.w3.org/2000/svg" viewBox="0 0 23 24" width="23" height="24">
	<title>STAKIN DESKTOP – 1</title>
	<defs>
		<clipPath clipPathUnits="userSpaceOnUse" id="cp1">
			<path d="m-577-217h1920v1080h-1920z" />
		</clipPath>
	</defs>
	<style>
		tspan { white-space:pre }
		.s0 { fill: #ffffff } 
	</style>
	<g id="STAKIN DESKTOP – 1" clip-path="url(#cp1)">
		<g id="Group 36">
			<g id="Group 21">
				<g id="gorilla icon">
					<path id="gorilla icon" class="s0" d="m6.51 17.17c0.39 2.44-0.31 3.14-0.48 4.55c1.04 0.32 0.99 2.2 0.99 2.2c0 0-2.21 0-4.79 0c-0.31-1.07-0.39-4.63 0.38-5.89c-0.27-0.34-3.09-0.5-2.53-5.89c0.52-4.94 5.96-2.68 6.84-2.94c0.89-0.25 4.18-5.03 6.04-5.33c-0.25 0.6-0.17 0.95 0.5 1.76c-0.72-1.69 1.32-5.77 3.56-5.62c2.24 0.14 4.32 3.22 4.5 3.73c0.17 0.52-0.29 1.46-0.29 1.46c0 0 1.35 1.23 1.35 1.55c0 0.32-0.3 1.81-1.14 2.04c-0.83 0.23-1.26 0.41-1.32-0.43c-0.05-0.83-0.19-1.37-1.63-2.61c2.12 3.08 0.33 8.04 0.24 8.93c-0.09 0.88 0.83 4.92-0.31 9.25c0 0-3.61 0.08-5.05 0.08c0.34-1.46 2.76-0.34 2.12-1.58c-0.64-1.23-1.53-5.05-1.09-6.6c-0.85-1.89-0.93-2.9-0.74-4.3c-0.88 1.48-0.29 3.37 0.01 4.66c-1.22 0.6-3.87 1.57-6.29 1.18c-0.11-0.03 1.4-1.87 0.23-3.98c0.14 2.66-0.97 3.83-1.09 3.79v0z" />
				</g>
			</g>
		</g>
	</g>
</svg>