<svg version="1.2" baseProfile="tiny-ps" xmlns="http://www.w3.org/2000/svg" viewBox="0 0 18 18" width="18" height="18">
	<title>JUNGLE</title>
	<defs>
		<clipPath clipPathUnits="userSpaceOnUse" id="cp1">
			<path d="m-267-369h1921v1080h-1921z" />
		</clipPath>
	</defs>
	<style>
		tspan { white-space:pre }
		.s0 { fill: #ffffff } 
	</style>
	<g id="JUNGLE" clip-path="url(#cp1)">
		<g id="Group 55">
			<path id="Icon metro-cross" class="s0" d="m17.84 14.46c0.06 0.06 0.1 0.13 0.13 0.2c0.07 0.2 0.03 0.43-0.13 0.59l-2.58 2.58c-0.16 0.16-0.39 0.2-0.59 0.13c-0.08-0.03-0.14-0.07-0.2-0.13h0l-5.46-5.46l-5.46 5.46h0c-0.06 0.06-0.13 0.1-0.2 0.13c-0.2 0.07-0.43 0.03-0.59-0.13l-2.58-2.58c-0.16-0.16-0.2-0.39-0.13-0.59c0.03-0.08 0.07-0.14 0.13-0.2h0l5.46-5.46l-5.46-5.46h0c-0.06-0.06-0.1-0.13-0.13-0.2c-0.07-0.2-0.03-0.43 0.13-0.59l2.58-2.58c0.16-0.16 0.39-0.2 0.59-0.13c0.08 0.03 0.14 0.07 0.2 0.13h0l5.46 5.46l5.46-5.46c0 0 0 0 0 0c0.06-0.06 0.13-0.1 0.2-0.13c0.2-0.07 0.43-0.03 0.59 0.13l2.58 2.58c0.16 0.16 0.2 0.39 0.13 0.59c-0.03 0.08-0.07 0.14-0.13 0.2h0l-5.46 5.46l5.46 5.46c0 0 0 0 0 0v0z" />
		</g>
	</g>
</svg>